<?xml version="1.0" standalone="no"?>
<!DOCTYPE svg PUBLIC "-//W3C//DTD SVG 20010904//EN"
 "http://www.w3.org/TR/2001/REC-SVG-20010904/DTD/svg10.dtd">
<svg version="1.0" xmlns="http://www.w3.org/2000/svg"
 width="570.000000pt" height="548.000000pt" viewBox="0 0 570.000000 548.000000"
 preserveAspectRatio="xMidYMid meet">

<g transform="translate(0.000000,548.000000) scale(0.100000,-0.100000)"
fill="#000000" stroke="none">
<path d="M2725 5344 c-50 -53 -46 -143 9 -258 l37 -77 -28 -33 c-86 -97 -102
-200 -46 -306 20 -38 17 -48 -29 -99 -51 -57 -77 -122 -85 -211 -5 -54 -2 -72
15 -104 23 -43 20 -58 -23 -122 -25 -36 -26 -45 -22 -114 3 -41 12 -105 20
-141 22 -101 1 -138 -86 -154 -58 -11 -99 2 -143 43 -22 21 -62 52 -89 67 -28
16 -51 33 -53 37 -2 4 -9 8 -15 8 -6 0 -42 15 -81 34 -39 18 -88 41 -109 51
-22 9 -49 33 -65 57 -61 91 -144 159 -199 161 -13 0 -116 58 -148 83 -16 12
-43 49 -61 81 -32 59 -67 88 -127 104 -44 11 -218 73 -238 85 -9 5 -24 25 -34
44 -10 19 -28 49 -40 65 -13 17 -26 40 -30 53 -11 39 -28 19 -31 -38 -2 -30
-6 -71 -9 -91 -3 -22 3 -59 15 -95 11 -33 20 -66 20 -74 0 -8 28 -33 63 -55
53 -34 66 -49 93 -105 18 -36 35 -82 38 -103 11 -69 31 -92 114 -134 28 -14
52 -31 52 -37 0 -6 24 -58 53 -116 51 -103 54 -106 109 -132 76 -36 107 -87
133 -213 4 -21 37 -59 106 -125 89 -85 99 -99 99 -130 0 -49 -22 -75 -77 -95
-27 -9 -56 -21 -65 -26 -10 -5 -22 -9 -28 -9 -5 0 -45 -16 -87 -37 -97 -45
-174 -50 -240 -15 -71 37 -157 26 -216 -29 -16 -15 -36 -18 -118 -18 -110 0
-145 -12 -212 -75 -44 -41 -77 -45 -185 -22 -75 15 -143 7 -180 -22 -82 -64
-163 -92 -285 -95 -15 -1 -27 -4 -27 -7 0 -3 -30 -7 -67 -8 -37 -1 -69 -5 -72
-7 -10 -10 18 -28 43 -27 15 0 29 -4 32 -9 3 -5 14 -9 26 -9 33 0 231 -50 246
-62 18 -15 132 -14 161 1 18 10 29 7 79 -23 72 -45 102 -51 191 -37 70 11 73
11 139 -20 77 -37 110 -39 216 -14 l74 18 60 -42 59 -42 99 6 c86 5 104 3 134
-14 90 -50 102 -53 185 -47 72 6 83 4 102 -13 27 -26 37 -69 28 -129 -10 -69
-35 -113 -77 -134 -20 -11 -55 -40 -78 -66 -23 -26 -47 -54 -54 -62 -19 -21
-62 -109 -70 -143 -15 -64 -48 -137 -62 -137 -8 0 -14 -4 -14 -9 0 -5 -17 -15
-37 -21 -105 -34 -129 -64 -139 -178 -6 -68 -31 -111 -82 -139 -21 -12 -45
-30 -54 -40 -30 -34 -65 -108 -77 -165 -7 -31 -19 -62 -27 -68 -7 -7 -14 -18
-14 -24 -1 -16 -38 -40 -87 -56 -39 -12 -43 -17 -43 -44 0 -18 7 -42 16 -54
13 -19 24 -22 82 -22 37 0 84 4 104 9 59 14 116 66 145 132 27 61 72 102 128
115 17 4 79 31 140 60 60 30 114 54 120 54 6 0 30 16 52 35 31 26 45 49 59 95
18 57 21 61 64 76 25 9 72 27 105 40 33 12 71 26 85 30 67 19 140 84 140 125
0 63 86 116 172 104 48 -7 131 -54 141 -79 3 -8 -1 -36 -9 -63 -19 -61 -20
-135 -3 -176 7 -18 29 -52 47 -77 36 -47 36 -41 13 -165 -18 -91 -13 -147 16
-206 15 -29 30 -56 34 -59 4 -3 14 -23 23 -45 16 -37 16 -43 0 -85 -27 -71
-24 -154 10 -225 20 -43 28 -78 29 -122 2 -39 8 -68 18 -80 27 -31 46 -117 48
-210 1 -32 2 -33 45 -33 37 0 48 5 70 31 29 34 29 36 30 172 1 78 4 101 17
110 48 36 59 86 45 208 -7 66 -7 67 22 88 26 18 32 32 46 108 9 49 16 109 16
134 0 42 -33 161 -51 185 -9 11 37 116 73 167 64 89 75 139 58 256 -11 78 -11
92 4 123 28 58 115 84 180 53 35 -17 126 -112 126 -132 0 -37 115 -93 190 -93
33 0 42 -5 54 -27 9 -16 32 -46 51 -68 20 -22 54 -63 75 -90 52 -68 81 -87
170 -114 105 -31 159 -60 176 -93 8 -15 12 -28 9 -28 -14 0 28 -61 55 -80 25
-17 219 -73 408 -117 12 -3 25 -9 28 -14 19 -31 107 32 97 70 -3 12 -10 21
-15 21 -5 0 -7 4 -3 9 6 11 -64 81 -81 81 -6 0 -19 9 -30 21 -10 12 -38 30
-62 41 -49 23 -66 46 -113 145 -19 40 -37 73 -41 73 -19 0 -108 74 -126 104
-10 18 -22 54 -26 80 -8 54 -45 101 -101 132 -38 20 -52 45 -86 148 -23 74
-49 105 -111 137 -44 23 -78 64 -78 95 0 13 -6 27 -13 31 -7 4 -21 28 -32 53
-11 25 -22 47 -25 50 -3 3 -14 22 -24 44 -17 36 -17 40 -1 82 27 72 74 89 195
69 39 -6 53 -2 105 25 33 18 69 41 81 51 20 18 21 18 59 -1 58 -30 133 -26
235 10 89 32 144 39 176 22 10 -5 44 -12 75 -15 45 -5 64 -2 95 15 88 47 174
65 174 37 0 -5 28 -9 63 -9 69 0 154 34 214 84 l32 27 43 -24 c24 -14 59 -28
78 -32 19 -4 51 -18 72 -31 21 -13 40 -24 43 -24 16 0 0 39 -32 79 -51 62 -57
69 -95 121 -64 85 -149 109 -215 61 -28 -21 -30 -21 -98 -5 -39 9 -99 30 -135
47 -58 27 -77 31 -171 33 -87 2 -114 7 -150 26 -24 12 -50 28 -57 35 -21 20
-67 20 -175 -2 l-69 -14 -61 31 c-59 31 -67 32 -157 29 -233 -7 -245 -6 -280
19 -39 28 -60 74 -60 136 0 44 3 49 73 117 110 108 111 111 117 185 l5 67 57
30 c58 30 88 51 136 93 15 13 37 31 50 39 34 24 107 123 120 163 6 19 14 58
17 85 4 40 11 56 36 78 18 15 36 27 41 27 20 0 84 77 95 115 7 22 14 68 16
103 4 75 26 110 83 129 54 18 73 64 48 116 -21 44 -44 49 -125 25 -143 -43
-171 -58 -244 -133 -81 -83 -106 -98 -195 -114 -79 -14 -104 -26 -147 -69 -22
-22 -35 -46 -40 -75 -11 -69 -111 -157 -179 -157 -49 0 -138 -45 -188 -95 -21
-22 -54 -72 -71 -111 -41 -88 -66 -106 -161 -112 -135 -9 -164 12 -164 118 0
68 -22 159 -43 171 -6 4 -11 57 -12 125 -2 117 -24 224 -46 224 -5 0 -17 17
-27 38 -17 32 -18 41 -6 72 26 73 6 200 -45 275 -41 61 -41 66 -14 161 23 81
24 94 14 148 -12 56 -30 94 -58 124 -7 7 -13 20 -13 28 0 8 -19 32 -41 53 -23
21 -39 44 -35 50 12 19 -14 50 -52 61 -50 14 -50 14 -77 -16z m205 -1839 c153
-22 299 -93 390 -191 83 -89 180 -235 180 -271 0 -10 4 -23 8 -28 26 -30 37
-107 36 -245 -1 -128 -4 -154 -26 -220 -14 -41 -36 -93 -48 -115 -13 -22 -28
-49 -34 -60 -19 -34 -96 -135 -104 -135 -4 0 -28 -19 -53 -42 -51 -48 -185
-118 -271 -142 -90 -26 -340 -23 -372 3 -6 5 -34 17 -61 27 -28 9 -62 25 -77
35 -14 11 -30 19 -35 19 -22 0 -157 122 -200 180 -57 79 -103 163 -103 189 0
11 -4 22 -9 25 -10 7 -29 75 -36 131 -12 99 -3 232 20 299 8 22 15 48 15 56 0
14 44 104 79 161 32 51 77 106 116 140 22 19 48 41 57 49 69 62 240 127 368
140 65 7 76 7 160 -5z"/>
<path d="M2500 3228 c-25 -4 -54 -9 -65 -11 -29 -5 -65 -30 -65 -44 0 -17 10
-16 56 3 58 24 124 15 169 -24 20 -18 39 -32 43 -33 42 -5 90 -4 104 3 21 10
13 38 -12 38 -23 0 -103 28 -110 39 -13 22 -76 37 -120 29z"/>
<path d="M3118 3219 c-7 -4 -46 -12 -86 -19 -84 -14 -111 -32 -118 -80 -9 -55
-6 -77 15 -111 16 -26 18 -36 8 -48 -7 -8 -11 -15 -9 -15 6 -2 -10 -56 -17
-56 -13 0 -7 -143 7 -147 23 -8 12 -28 -27 -49 -36 -19 -42 -20 -61 -7 -11 8
-29 12 -39 8 -33 -10 -71 -46 -71 -66 0 -16 5 -18 28 -12 47 12 66 9 71 -12 3
-11 13 -20 21 -20 22 0 159 88 160 101 0 7 -13 38 -30 69 -16 31 -30 63 -30
71 0 8 11 37 25 66 14 28 25 63 25 77 0 32 8 45 37 60 33 17 128 14 143 -4 7
-9 19 -14 26 -11 7 3 15 2 18 -2 2 -4 19 -9 38 -10 18 -2 37 -7 42 -12 11 -11
-21 -63 -34 -55 -6 4 -10 2 -10 -4 0 -5 -17 -9 -37 -7 -36 2 -38 3 -39 39 -1
45 -3 47 -43 53 -40 7 -74 -12 -68 -37 3 -10 2 -19 -1 -20 -30 -3 -46 -10 -53
-21 -21 -32 1 -59 29 -36 20 16 61 16 119 -1 52 -14 153 -11 153 6 0 15 51 93
62 93 4 0 8 7 8 15 0 9 -9 15 -22 15 -13 0 -44 0 -70 0 -34 -1 -51 5 -65 19
-30 32 -185 45 -224 17 -30 -20 -43 -20 -35 0 3 8 2 23 -4 33 -11 22 15 65 36
57 7 -3 16 -1 19 4 4 6 16 10 28 10 12 0 39 6 60 14 21 7 51 12 67 11 23 -1
30 3 30 16 0 13 -8 17 -35 16 -19 -1 -40 -4 -47 -8z"/>
<path d="M2366 3065 c-37 -18 -79 -33 -94 -32 -21 2 -27 -3 -27 -18 0 -15 9
-21 35 -26 45 -7 110 -47 110 -66 0 -8 4 -12 9 -8 5 3 17 -3 27 -12 34 -34
219 -28 219 8 0 15 -11 15 -97 5 -54 -6 -66 3 -38 29 13 12 17 22 11 29 -5 6
-9 16 -10 21 0 6 -10 12 -22 15 -27 7 -36 25 -15 33 19 7 86 -11 107 -29 8 -8
20 -14 26 -14 6 0 14 -7 17 -16 8 -21 28 -7 21 16 -9 27 45 37 87 16 38 -20
57 -7 28 19 -25 23 -65 28 -107 14 -28 -9 -36 -7 -54 10 -22 21 -45 27 -125
35 -33 4 -56 -3 -108 -29z m84 -36 c0 -4 -9 -11 -21 -14 -12 -4 -18 -12 -15
-21 7 -19 -18 -18 -34 1 -14 17 -14 17 12 31 21 11 58 13 58 3z"/>
<path d="M2718 2518 c-2 -3 -23 -9 -48 -13 -25 -4 -49 -10 -54 -15 -12 -12 13
-42 30 -36 7 3 16 1 19 -4 3 -6 16 -5 31 0 14 6 30 8 35 4 5 -3 9 0 9 6 0 6 4
9 9 6 5 -4 22 1 38 11 27 15 34 15 75 1 38 -12 50 -12 70 -2 25 14 54 10 80
-13 9 -8 22 -12 28 -8 6 4 17 2 24 -4 13 -11 66 -12 66 -1 -1 16 -20 28 -55
34 -22 4 -45 12 -51 17 -17 14 -77 18 -119 9 -28 -6 -44 -5 -59 5 -22 15 -123
17 -128 3z"/>
<path d="M2909 2362 c-6 -13 -59 -24 -59 -12 0 20 -55 5 -57 -16 -3 -23 77
-88 91 -74 6 6 16 4 27 -6 14 -12 22 -13 38 -4 12 6 21 7 21 2 0 -6 8 -12 18
-14 20 -6 26 -46 10 -65 -8 -10 -8 -17 1 -26 10 -9 19 -5 41 21 26 31 31 72 9
72 -5 0 -6 6 -3 13 2 7 -9 30 -25 51 -16 20 -31 42 -33 47 -5 14 -75 23 -79
11z"/>
</g>
</svg>
